<?xml version="1.0"?>
<svg xmlns="http://www.w3.org/2000/svg" xmlns:xlink="http://www.w3.org/1999/xlink" version="1.1" id="Capa_1" x="0px" y="0px" viewBox="0 0 512.001 512.001" style="enable-background:new 0 0 512.001 512.001;" xml:space="preserve" width="512px" height="512px" class=""><g><g>
	<g>
		<path d="M353.626,319.501h-45.748v-18.032c8.565-5.514,16.2-12.352,22.62-20.219h49.754c33.496,0,60.747-27.251,60.747-60.748    L441,202.75c0-4.142-3.357-7.5-7.5-7.5c-4.142,0-7.5,3.358-7.5,7.5c0,5.652-4.598,10.25-10.25,10.25    c-5.652,0-10.25-4.598-10.25-10.25v-62.126C405.5,63.083,342.416,0,264.876,0c-26.915,0-52.91,7.59-75.455,21.958    c-6.874-2.705-14.348-4.207-22.17-4.207c-33.498,0-60.75,27.252-60.75,60.75V202.75c0,5.651-4.598,10.25-10.25,10.25    s-10.25-4.598-10.25-10.249v-0.002c0-4.142-3.359-7.499-7.5-7.499c-4.142,0-7.5,3.358-7.5,7.5c0,0,0,0,0,0.001l0.003,17.75    c0,33.497,27.251,60.748,60.748,60.748h49.646c6.447,7.9,14.118,14.764,22.728,20.29V319.5h-45.397    c-48.179,0-87.375,39.196-87.375,87.348l-0.353,97.624c-0.007,1.994,0.78,3.908,2.187,5.32c1.407,1.413,3.319,2.207,5.313,2.207    h53.25c4.142,0,7.5-3.358,7.5-7.5c0-4.142-3.358-7.5-7.5-7.5H86.029l0.325-90.124c0-39.908,32.467-72.375,72.375-72.375h16.668    l-15.421,61.681c-0.561,2.241-0.057,4.615,1.364,6.435s3.603,2.884,5.912,2.884l29.644-0.001l22.874,91.5h-54.668    c-4.142,0-7.5,3.358-7.5,7.5c0,4.142,3.358,7.5,7.5,7.5h64.244c0.008,0,0.015,0.002,0.023,0.002c0.011,0,0.021-0.002,0.032-0.002    h53.198c0.011,0,0.021,0.002,0.032,0.002c0.008,0,0.015-0.002,0.023-0.002H433.5c4.143,0,7.5-3.358,7.5-7.5v-97.624    C441,358.697,401.804,319.501,353.626,319.501z M321.142,334.5l14.001,56l-42.91-0.002l14-55.998H321.142z M281.209,372.749    h-50.416l-11.668-46.67v-16.687c11.348,4.72,23.785,7.332,36.822,7.332c13.078,0,25.553-2.628,36.93-7.376v16.729L281.209,372.749    z M337.144,186.402c-0.687,4.99-4.968,8.849-10.144,8.849h-35.5c-5.652,0-10.25-4.599-10.25-10.251v-28h55.894V186.402z     M337.144,142H273.75h-35.497h-63.501v-10.249v-0.001c0-22.864,16.858-41.863,38.797-45.222    c3.943,29.714,29.428,52.721,60.202,52.721h35.5c10.052,0,19.533-2.469,27.893-6.809V142z M230.755,185    c0,5.652-4.599,10.251-10.251,10.251h-35.501c-5.649,0-10.245-4.594-10.25-10.241V157h56.001L230.755,185z M264.876,15    C334.146,15,390.5,71.354,390.5,140.624v62.126c0,13.923,11.327,25.25,25.25,25.25c3.521,0,6.876-0.724,9.925-2.032    c-2.71,22.659-22.047,40.282-45.423,40.282h-39.687c7.382-13.607,11.578-29.183,11.578-45.722v-33.254    c0.067-0.75,0.107-1.507,0.107-2.274l-0.002-35.48c0-0.006,0.001-0.013,0.001-0.019c0-0.413-0.042-0.816-0.106-1.211v-26.811    C363.169,110.475,370,95.271,370,78.5c0-4.142-3.357-7.5-7.5-7.5s-7.5,3.358-7.5,7.5c0,25.227-20.523,45.75-45.75,45.75h-35.5    c-25.226,0-45.749-20.523-45.749-45.75c0-0.007-0.001-0.014-0.001-0.021c-0.007-19.496-9.255-36.862-23.582-47.98    C222.872,20.342,243.546,15,264.876,15z M131.751,266.25c-23.375,0-42.712-17.624-45.423-40.281    C89.376,227.276,92.73,228,96.25,228c13.923,0,25.25-11.327,25.25-25.25V78.501c0-25.227,20.523-45.75,45.75-45.75    c22.864,0,41.863,16.858,45.223,38.797c-29.715,3.943-52.722,29.428-52.722,60.203c0,0,0,0,0,0.001v0.001v17.739    c0,0.003,0,0.006,0,0.01V185c0,0.006,0,0.013,0,0.019v35.509c0,16.538,4.196,32.115,11.578,45.722H131.751z M174.752,220.528    v-12.459c3.135,1.399,6.602,2.183,10.25,2.183h35.501c13.923,0,25.251-11.328,25.251-25.251l-0.002-28h20.497v28    c0,13.923,11.327,25.251,25.25,25.251h35.5c3.607,0,7.037-0.766,10.144-2.134v12.411c0,44.771-36.424,81.195-81.196,81.195    C211.176,301.724,174.752,265.3,174.752,220.528z M176.858,390.501l14-56h14.912l14,55.998L176.858,390.501z M235.231,497    l-22.874-91.501h11.163L246.396,497H235.231z M234.543,387.749h42.916l-21.458,85.829L234.543,387.749z M276.769,497h-11.162    l22.877-91.501h11.161L276.769,497z M426,497H292.231l22.875-91.5l29.644,0.001c2.31,0,4.49-1.064,5.911-2.884    c1.422-1.82,1.925-4.194,1.365-6.435l-15.421-61.681h17.021c39.907,0,72.374,32.467,72.374,72.375V497z" data-original="#000000" class="active-path" data-old_color="#000000" fill="#FFFFFF"/>
	</g>
</g><g>
	<g>
		<path d="M273.752,239.626h-35.501c-4.142,0-7.5,3.358-7.5,7.5c0,4.142,3.358,7.5,7.5,7.5h35.501c4.142,0,7.5-3.358,7.5-7.5    C281.252,242.984,277.895,239.626,273.752,239.626z" data-original="#000000" class="active-path" data-old_color="#000000" fill="#FFFFFF"/>
	</g>
</g><g>
	<g>
		<path d="M398,443.749h-53.25c-4.143,0-7.5,3.358-7.5,7.5c0,4.142,3.357,7.5,7.5,7.5H398c4.143,0,7.5-3.358,7.5-7.5    C405.5,447.107,402.142,443.749,398,443.749z" data-original="#000000" class="active-path" data-old_color="#000000" fill="#FFFFFF"/>
	</g>
</g></g> </svg>
