<?xml version="1.0"?>
<svg xmlns="http://www.w3.org/2000/svg" xmlns:xlink="http://www.w3.org/1999/xlink" version="1.1" id="Capa_1" x="0px" y="0px" viewBox="0 0 480 480" style="enable-background:new 0 0 480 480;" xml:space="preserve" width="512px" height="512px" class=""><g><g>
	<g>
		<path d="M184,400c0,13.234-14.352,24-32,24c-17.648,0-32-10.766-32-24h-16c0,22.055,21.531,40,48,40c26.469,0,48-17.945,48-40H184    z" data-original="#000000" class="active-path" data-old_color="#000000" fill="#FFFFFF"/>
	</g>
</g><g>
	<g>
		<path d="M480,69.711c-0.402-12.949-7.121-24.879-17.984-31.938C459.227,16.57,437.008,0,410.102,0    C402.556-0.01,395.069,1.337,388,3.977C380.931,1.337,373.444-0.01,365.898,0c-26.89,0-49.102,16.555-51.914,37.773    C303.118,44.829,296.399,56.761,296,69.711c0.027,6.447,1.798,12.767,5.125,18.289c-3.328,5.522-5.099,11.842-5.125,18.289    c0.223,10.861,5.048,21.116,13.273,28.211c0.523,22.953,23.743,41.5,52.203,41.5c10.291-0.096,20.532-1.456,30.492-4.047    c7.121,2.688,14.67,4.059,22.281,4.047c21.279,1.745,40.17-13.55,42.891-34.727c13.475-6.569,22.255-20.006,22.859-34.984    c-0.027-6.447-1.797-12.767-5.125-18.289C478.203,82.478,479.973,76.158,480,69.711z M458.938,93.055L458.938,93.055    c3.173,3.69,4.963,8.369,5.062,13.234c-0.921,10.264-7.772,19.035-17.508,22.414c-2.663,1.187-4.47,3.728-4.719,6.633    c0.225,13.502-10.537,24.63-24.039,24.855c-1.165,0.019-2.329-0.044-3.485-0.191c-6.481,0.023-12.895-1.313-18.828-3.922    c-2.082-0.938-4.465-0.938-6.547,0c-8.9,2.603-18.126,3.924-27.398,3.922c-19.969,0-36.211-11.797-36.211-26.289    c0.011-0.679,0.058-1.357,0.141-2.031c0.281-2.782-0.914-5.508-3.148-7.188c-6.126-4.085-9.936-10.847-10.258-18.203    c0.1-4.865,1.889-9.545,5.063-13.234c2.398-2.943,2.398-7.166,0-10.109c-3.173-3.69-4.963-8.369-5.063-13.234    c0.557-8.796,5.796-16.615,13.719-20.477c2.461-1.447,3.972-4.09,3.969-6.945C329.688,27.797,345.93,16,365.898,16    c6.481-0.023,12.895,1.313,18.828,3.922c2.082,0.938,4.465,0.938,6.547,0c5.933-2.609,12.347-3.945,18.828-3.922    c19.969,0,36.211,11.797,36.211,26.328c-0.002,2.845,1.51,5.476,3.969,6.906c7.923,3.862,13.161,11.681,13.719,20.477    c-0.1,4.865-1.889,9.545-5.062,13.234C456.539,85.888,456.539,90.112,458.938,93.055z" data-original="#000000" class="active-path" data-old_color="#000000" fill="#FFFFFF"/>
	</g>
</g><g>
	<g>
		<path d="M176,69.711c-0.307-12.725-6.662-24.541-17.109-31.813C156.281,16.641,134.922,0,109.055,0    C101.854-0.006,94.715,1.324,88,3.922C81.285,1.324,74.146-0.006,66.945,0C41.086,0,19.742,16.617,17.117,37.898    C6.668,45.169,0.311,56.985,0,69.711C0.017,76.133,1.717,82.439,4.93,88C1.717,93.561,0.017,99.867,0,106.289    c0.1,10.722,4.684,20.913,12.641,28.102C13.07,157.398,35.375,176,62.734,176c9.799-0.107,19.546-1.451,29.008-4    c6.774,2.65,13.984,4.007,21.258,4c20.898,1.409,39.146-14.012,41.242-34.852c12.992-6.863,21.3-20.173,21.758-34.859    c-0.017-6.422-1.717-12.728-4.93-18.289C174.283,82.439,175.983,76.133,176,69.711z M155.156,92.906    c3.063,3.795,4.768,8.506,4.844,13.383c-0.697,10.077-7.163,18.839-16.586,22.477c-2.602,1.218-4.353,3.738-4.586,6.602    C137.492,151.711,128.805,160,113,160c-6.094,0.018-12.118-1.299-17.648-3.859c-2.159-1.021-4.661-1.021-6.82,0    c-8.365,2.538-17.056,3.839-25.797,3.859c-18.805,0-34.102-11.797-34.102-26.289c0.009-0.679,0.053-1.357,0.133-2.031    c0.272-2.714-0.859-5.38-3-7.07c-5.92-4.262-9.527-11.03-9.766-18.321c0.076-4.877,1.781-9.588,4.844-13.383    c2.25-2.884,2.25-6.929,0-9.813c-3.063-3.795-4.768-8.506-4.844-13.383c0.412-8.671,5.361-16.484,13.023-20.563    c2.376-1.47,3.822-4.065,3.82-6.859C32.844,27.797,48.141,16,66.945,16c6.092-0.021,12.114,1.297,17.641,3.859    c2.163,1.016,4.665,1.016,6.828,0c5.527-2.563,11.549-3.88,17.641-3.859c18.805,0,34.102,11.797,34.102,26.328    c0,2.783,1.447,5.367,3.82,6.82c7.663,4.079,12.611,11.892,13.023,20.563c-0.076,4.877-1.781,9.588-4.844,13.383    C152.906,85.978,152.906,90.022,155.156,92.906z" data-original="#000000" class="active-path" data-old_color="#000000" fill="#FFFFFF"/>
	</g>
</g><g>
	<g>
		<path d="M368,192c-17.673,0-32,14.327-32,32s14.327,32,32,32c17.666-0.018,31.982-14.334,32-32C400,206.327,385.673,192,368,192z     M368,240c-8.832-0.011-15.989-7.168-16-16c0-8.837,7.163-16,16-16s16,7.163,16,16S376.837,240,368,240z" data-original="#000000" class="active-path" data-old_color="#000000" fill="#FFFFFF"/>
	</g>
</g><g>
	<g>
		<polygon points="96,80 96,40 80,40 80,80 40,80 40,96 80,96 80,136 96,136 96,96 136,96 136,80   " data-original="#000000" class="active-path" data-old_color="#000000" fill="#FFFFFF"/>
	</g>
</g><g>
	<g>
		<rect x="344" y="80" width="96" height="16" data-original="#000000" class="active-path" data-old_color="#000000" fill="#FFFFFF"/>
	</g>
</g><g>
	<g>
		<path d="M240,272C107.664,272,0,361.719,0,472c-0.003,4.416,3.575,7.997,7.991,8c0.003,0,0.006,0,0.009,0h464    c4.416,0.003,7.997-3.575,8-7.991c0-0.003,0-0.006,0-0.009C480,361.719,372.336,272,240,272z M16.211,464    C21.328,366.242,119.75,288,240,288s218.672,78.242,223.789,176H16.211z" data-original="#000000" class="active-path" data-old_color="#000000" fill="#FFFFFF"/>
	</g>
</g><g>
	<g>
		<path d="M360,400c0,13.234-14.352,24-32,24c-17.648,0-32-10.766-32-24h-16c0,22.055,21.531,40,48,40c26.469,0,48-17.945,48-40H360    z" data-original="#000000" class="active-path" data-old_color="#000000" fill="#FFFFFF"/>
	</g>
</g><g>
	<g>
		<path d="M112,192c-17.673,0-32,14.327-32,32s14.327,32,32,32s32-14.327,32-32C143.982,206.334,129.666,192.018,112,192z M112,240    c-8.837,0-16-7.163-16-16s7.163-16,16-16s16,7.163,16,16C127.989,232.832,120.832,239.989,112,240z" data-original="#000000" class="active-path" data-old_color="#000000" fill="#FFFFFF"/>
	</g>
</g><g>
	<g>
		<path d="M296,208c-13.255,0-24,10.745-24,24c0.014,13.249,10.751,23.986,24,24c13.255,0,24-10.745,24-24S309.255,208,296,208z     M296,240c-4.418,0-8-3.582-8-8c0.003-4.417,3.583-7.997,8-8c4.418,0,8,3.582,8,8S300.418,240,296,240z" data-original="#000000" class="active-path" data-old_color="#000000" fill="#FFFFFF"/>
	</g>
</g><g>
	<g>
		<path d="M184,208c-13.249,0.014-23.986,10.751-24,24c0,13.255,10.745,24,24,24s24-10.745,24-24S197.255,208,184,208z M184,240    c-4.418,0-8-3.582-8-8s3.582-8,8-8c4.417,0.003,7.997,3.583,8,8C192,236.418,188.418,240,184,240z" data-original="#000000" class="active-path" data-old_color="#000000" fill="#FFFFFF"/>
	</g>
</g></g> </svg>
